<svg viewBox="0 0 160 36" fill="none" xmlns="http://www.w3.org/2000/svg">
<path d="M18.4419 23.9017C21.782 23.9017 24.4897 21.2137 24.4897 17.8979C24.4897 14.5822 21.782 11.8942 18.4419 11.8942C15.1018 11.8942 12.3941 14.5822 12.3941 17.8979C12.3941 21.2137 15.1018 23.9017 18.4419 23.9017Z" fill="url(#paint0_linear_1_3402)"/>
<path d="M5.00657 4.98615C4.52848 5.46076 4.07962 5.96319 3.66239 6.49027C3.6668 6.48868 3.6716 6.48788 3.67601 6.48629C4.74791 6.14365 5.84663 5.90873 6.95576 5.75689C13.1693 4.90546 19.7669 6.99985 24.4897 11.6887C29.2129 16.3775 31.3227 22.9266 30.465 29.0949C30.3121 30.1964 30.0754 31.2867 29.7303 32.3508C29.7287 32.3551 29.7279 32.3599 29.7263 32.3643C30.2572 31.9501 30.7629 31.5045 31.2414 31.0299C38.1569 24.1648 37.899 12.7377 30.666 5.55735C23.433 -1.62297 11.922 -1.87935 5.00657 4.98615Z" fill="url(#paint1_linear_1_3402)"/>
<path d="M6.53774 3.63587C6.00679 4.05006 5.50108 4.49565 5.02259 4.97025C-1.89289 11.8354 -1.63503 23.2625 5.59798 30.4428C12.831 37.6231 24.342 37.8791 31.2574 31.014C31.7227 30.5521 32.1596 30.064 32.5672 29.5528C32.5756 29.5492 32.584 29.5461 32.5924 29.5429C34.331 27.4751 35.4033 24.5484 35.7108 23.2204C35.284 25.0643 33.1434 29.7579 27.7026 30.3971C21.9767 30.7159 16.0919 28.5984 11.7739 24.3115C8.09933 20.6637 6.00679 15.8898 5.66284 11.0451C5.65523 10.9311 5.64683 10.7856 5.63922 10.6139C5.64042 10.6548 5.64162 10.6942 5.64282 10.7323C5.60398 10.0311 5.60158 9.32916 5.63642 8.62957C5.60398 9.43609 5.618 10.1301 5.63922 10.6139C5.58917 8.63434 6.84885 2.50103 11.5925 0.926953C10.4221 1.3153 7.97201 2.35475 6.53774 3.63587Z" fill="url(#paint2_linear_1_3402)"/>
<path d="M52.1821 26.9524C50.8735 26.9524 49.6687 26.7342 48.5676 26.2989C47.466 25.8637 46.5139 25.2468 45.7106 24.4494C44.907 23.652 44.286 22.7068 43.8475 21.6133C43.4087 20.5202 43.1893 19.3241 43.1893 18.0251C43.1893 16.7261 43.4167 15.5591 43.8723 14.4739C44.3276 13.3888 44.9695 12.4435 45.7975 11.6378C46.6256 10.8325 47.5986 10.2072 48.7165 9.76362C49.8345 9.32002 51.0473 9.09782 52.3558 9.09782C53.1839 9.09782 53.9955 9.20514 54.7903 9.4186C55.5851 9.63245 56.3263 9.94885 57.0138 10.3682C57.7009 10.7876 58.2931 11.2932 58.79 11.885L56.1814 14.8197C55.6676 14.2609 55.0922 13.8252 54.4548 13.5128C53.8169 13.2007 53.109 13.0441 52.3306 13.0441C51.6679 13.0441 51.0425 13.1594 50.4551 13.3896C49.8669 13.6201 49.3576 13.9568 48.9271 14.4008C48.4963 14.8448 48.1571 15.3711 47.9085 15.9792C47.6602 16.5878 47.5357 17.2782 47.5357 18.051C47.5357 18.8237 47.6558 19.4939 47.8961 20.1104C48.1359 20.7269 48.4839 21.2532 48.9395 21.6888C49.3948 22.1245 49.9414 22.4576 50.5792 22.6877C51.2167 22.9183 51.9246 23.0331 52.7034 23.0331C53.2167 23.0331 53.7096 22.9636 54.1817 22.8237C54.6538 22.6841 55.0966 22.4826 55.5107 22.2195C55.9243 21.9567 56.2807 21.6606 56.579 21.3315L58.6411 24.5869C58.2435 25.0309 57.7009 25.434 57.0138 25.7953C56.3263 26.157 55.5643 26.4408 54.7283 26.6463C53.8918 26.8519 53.0429 26.9548 52.1817 26.9548L52.1821 26.9524Z" fill="#422A2A"/>
<path d="M61.498 26.7056V9.44205H69.3733C70.4992 9.44205 71.5098 9.68055 72.404 10.1571C73.2985 10.6341 74.0064 11.2876 74.5281 12.1176C75.0499 12.9479 75.3105 13.8976 75.3105 14.966C75.3105 16.0345 75.0499 17.0215 74.5281 17.8761C74.0064 18.7311 73.2985 19.4092 72.404 19.9108C71.5094 20.4125 70.4992 20.6629 69.3733 20.6629H65.5473V26.7052L61.498 26.7056ZM69.0005 17.3832C69.4309 17.3832 69.8077 17.2886 70.1308 17.0994C70.454 16.9105 70.7022 16.6518 70.876 16.3227C71.0498 15.9939 71.1367 15.6159 71.1367 15.1882C71.1367 14.7605 71.033 14.3582 70.8259 14.0291C70.6185 13.7004 70.329 13.4416 69.9563 13.2524C69.5835 13.0636 69.1402 12.9686 68.6273 12.9686H65.5469V17.3832H69.0005ZM71.1619 26.7056L66.7398 18.8877L71.0874 18.2712L76.0064 26.7302L71.1619 26.7056Z" fill="#422A2A"/>
<path d="M83.5089 26.7056V18.0987L83.6827 19.307L76.6523 9.44205H81.472L86.8135 17.0381L84.6521 16.9642L89.447 9.44245H94.1422L87.4097 19.5785L87.7825 17.8769V26.706L83.5089 26.7056Z" fill="#422A2A"/>
<path d="M101.917 26.9524C100.194 26.9524 98.7409 26.6527 97.5569 26.0521C96.3725 25.4523 95.3582 24.6012 94.5138 23.4994L97.0976 20.614C97.9089 21.7158 98.7289 22.4556 99.5569 22.8336C100.385 23.212 101.238 23.4008 102.116 23.4008C102.563 23.4008 102.964 23.3436 103.321 23.2283C103.677 23.1134 103.958 22.9445 104.165 22.7227C104.372 22.5009 104.476 22.2338 104.476 21.9213C104.476 21.6749 104.414 21.4527 104.29 21.2555C104.166 21.0584 103.995 20.8855 103.78 20.7376C103.565 20.5897 103.317 20.4538 103.035 20.3306C102.753 20.2074 102.443 20.1048 102.104 20.0221C101.764 19.9402 101.42 19.8659 101.072 19.8003C100.112 19.6032 99.2795 19.344 98.5759 19.0236C97.8716 18.7028 97.2842 18.3169 96.8121 17.8645C96.3401 17.4126 95.9881 16.8946 95.7563 16.3107C95.524 15.7272 95.4083 15.0654 95.4083 14.3253C95.4083 13.2731 95.7102 12.3521 96.3152 11.5631C96.9194 10.7741 97.7187 10.1571 98.7125 9.71354C99.7063 9.26954 100.783 9.04774 101.942 9.04774C103.632 9.04774 104.994 9.31525 106.029 9.84908C107.064 10.3837 107.888 11.1191 108.501 12.0564L105.867 14.5967C105.353 13.9393 104.769 13.446 104.116 13.1169C103.461 12.7881 102.778 12.6236 102.066 12.6236C101.585 12.6236 101.163 12.6812 100.799 12.7961C100.435 12.9114 100.157 13.0799 99.967 13.3017C99.7764 13.5235 99.6815 13.791 99.6815 14.1031C99.6815 14.3662 99.7599 14.6007 99.9173 14.8058C100.075 15.0117 100.294 15.1882 100.576 15.3361C100.857 15.4839 101.18 15.6115 101.545 15.7185C101.909 15.8258 102.29 15.912 102.687 15.9772C103.598 16.1585 104.422 16.3966 105.159 16.6923C105.896 16.9885 106.529 17.3542 107.059 17.7898C107.589 18.2255 107.999 18.7354 108.289 19.319C108.579 19.9029 108.724 20.5731 108.724 21.3291C108.724 22.5128 108.434 23.524 107.854 24.3624C107.274 25.2007 106.471 25.8422 105.445 26.2858C104.418 26.7298 103.242 26.9524 101.917 26.9524Z" fill="#422A2A"/>
<path d="M115.68 26.7056V13.1662H110.563V9.44205H125.22V13.1662H119.929V26.7056H115.68Z" fill="#422A2A"/>
<path d="M126.015 26.7056L132.896 9.44205H136.498L143.33 26.7056H139.057L135.753 17.9504C135.637 17.605 135.508 17.2353 135.368 16.8406C135.227 16.4459 135.09 16.0353 134.958 15.6076C134.825 15.1803 134.701 14.7693 134.585 14.3745C134.469 13.9798 134.369 13.6102 134.286 13.2647L135.007 13.2401C134.908 13.6511 134.799 14.0538 134.684 14.4485C134.568 14.8432 134.443 15.2375 134.311 15.6322C134.178 16.0269 134.041 16.4177 133.901 16.8036C133.76 17.19 133.615 17.5891 133.466 17.9997L130.187 26.7056H126.015ZM129.294 23.4008L130.636 20.1946H138.585L139.927 23.4008H129.294Z" fill="#422A2A"/>
<path d="M145.492 26.7056V9.44205H153.367C154.493 9.44205 155.503 9.68055 156.398 10.1571C157.292 10.6341 158 11.2876 158.522 12.1176C159.043 12.9479 159.304 13.8976 159.304 14.966C159.304 16.0345 159.043 17.0215 158.522 17.8761C158 18.7311 157.292 19.4092 156.398 19.9108C155.503 20.4125 154.493 20.6629 153.367 20.6629H149.541V26.7052L145.492 26.7056ZM152.994 17.3832C153.424 17.3832 153.801 17.2886 154.124 17.0994C154.448 16.9105 154.696 16.6518 154.87 16.3227C155.043 15.9939 155.13 15.6159 155.13 15.1882C155.13 14.7605 155.027 14.3582 154.82 14.0291C154.612 13.7004 154.323 13.4416 153.95 13.2524C153.577 13.0636 153.134 12.9686 152.621 12.9686H149.541V17.3832H152.994ZM155.155 26.7056L150.733 18.8877L155.081 18.2712L160 26.7302L155.155 26.7056Z" fill="#422A2A"/>
<defs>
<linearGradient id="paint0_linear_1_3402" x1="147.585" y1="-9.31462" x2="138.615" y2="62.2957" gradientUnits="userSpaceOnUse">
<stop stop-color="#F39D6C"/>
<stop offset="1" stop-color="#7E1710"/>
</linearGradient>
<linearGradient id="paint1_linear_1_3402" x1="158.285" y1="27.2473" x2="145.17" y2="-29.5971" gradientUnits="userSpaceOnUse">
<stop stop-color="#F2936C"/>
<stop offset="1" stop-color="#7F2910"/>
</linearGradient>
<linearGradient id="paint2_linear_1_3402" x1="0.338374" y1="10.1012" x2="24.1915" y2="74.8492" gradientUnits="userSpaceOnUse">
<stop stop-color="#F2936C"/>
<stop offset="1" stop-color="#7F2910"/>
</linearGradient>
</defs>
</svg>
