<?xml version="1.0" encoding="UTF-8"?>
<!DOCTYPE svg PUBLIC "-//W3C//DTD SVG 1.1//EN" "http://www.w3.org/Graphics/SVG/1.1/DTD/svg11.dtd">
<svg xmlns="http://www.w3.org/2000/svg" version="1.1" width="120px" height="120px" style="shape-rendering:geometricPrecision; text-rendering:geometricPrecision; image-rendering:optimizeQuality; fill-rule:evenodd; clip-rule:evenodd" xmlns:xlink="http://www.w3.org/1999/xlink">
<g><path style="opacity:0.004" fill="#010000" d="M 53.5,-0.5 C 53.8333,-0.5 54.1667,-0.5 54.5,-0.5C 54.5,-0.166667 54.5,0.166667 54.5,0.5C 54.1667,0.166667 53.8333,-0.166667 53.5,-0.5 Z"/></g>
<g><path style="opacity:0.004" fill="#010000" d="M 64.5,-0.5 C 64.8333,-0.5 65.1667,-0.5 65.5,-0.5C 65.3147,0.170143 64.9813,0.170143 64.5,-0.5 Z"/></g>
<g><path style="opacity:0.255" fill="#3c120f" d="M 56.5,0.5 C 59.1667,0.5 61.8333,0.5 64.5,0.5C 64.5,1.5 64.5,2.5 64.5,3.5C 64.1667,3.5 63.8333,3.5 63.5,3.5C 62.8658,2.05322 61.6991,1.38655 60,1.5C 58.9302,1.52804 58.0968,1.86137 57.5,2.5C 56.8333,2.5 56.5,2.83333 56.5,3.5C 56.1667,3.5 55.8333,3.5 55.5,3.5C 55.5569,2.39105 55.8902,1.39105 56.5,0.5 Z"/></g>
<g><path style="opacity:0.004" fill="#000000" d="M 51.5,1.5 C 52.8333,2.16667 52.8333,2.16667 51.5,1.5 Z"/></g>
<g><path style="opacity:0.039" fill="#170604" d="M 54.5,0.5 C 55.1667,0.5 55.8333,0.5 56.5,0.5C 55.8902,1.39105 55.5569,2.39105 55.5,3.5C 55.1667,3.5 54.8333,3.5 54.5,3.5C 54.5,2.5 54.5,1.5 54.5,0.5 Z"/></g>
<g><path style="opacity:0.004" fill="#000000" d="M 66.5,1.5 C 67.8333,2.16667 67.8333,2.16667 66.5,1.5 Z"/></g>
<g><path style="opacity:0.999" fill="#f54237" d="M 57.5,2.5 C 58.5,2.5 59.5,2.5 60.5,2.5C 60.3398,4.19919 60.5065,5.86586 61,7.5C 62.0432,3.77406 62.5432,4.1074 62.5,8.5C 60.5,8.5 58.5,8.5 56.5,8.5C 56.5,6.83333 56.5,5.16667 56.5,3.5C 56.5,2.83333 56.8333,2.5 57.5,2.5 Z"/></g>
<g><path style="opacity:0.055" fill="#1f0a06" d="M 54.5,3.5 C 54.5,5.16667 54.5,6.83333 54.5,8.5C 53.3509,8.20894 52.6842,7.37561 52.5,6C 52.6842,4.62439 53.3509,3.79106 54.5,3.5 Z"/></g>
<g><path style="opacity:0.525" fill="#6d1e19" d="M 63.5,3.5 C 63.8333,3.5 64.1667,3.5 64.5,3.5C 64.5,5.16667 64.5,6.83333 64.5,8.5C 64.5,9.83333 63.8333,10.5 62.5,10.5C 63.3686,8.28298 63.702,5.94965 63.5,3.5 Z"/></g>
<g><path style="opacity:0.016" fill="#1f0a05" d="M 64.5,3.5 C 65.6491,3.79106 66.3158,4.62439 66.5,6C 66.3158,7.37561 65.6491,8.20894 64.5,8.5C 64.5,6.83333 64.5,5.16667 64.5,3.5 Z"/></g>
<g><path style="opacity:0.998" fill="#d03b32" d="M 57.5,2.5 C 58.0968,1.86137 58.9302,1.52804 60,1.5C 61.6991,1.38655 62.8658,2.05322 63.5,3.5C 63.702,5.94965 63.3686,8.28298 62.5,10.5C 62.1667,10.5 61.8333,10.5 61.5,10.5C 59.8333,10.5 58.1667,10.5 56.5,10.5C 56.1667,9.5 55.5,8.83333 54.5,8.5C 54.5,6.83333 54.5,5.16667 54.5,3.5C 54.8333,3.5 55.1667,3.5 55.5,3.5C 55.8333,3.5 56.1667,3.5 56.5,3.5C 56.5,5.16667 56.5,6.83333 56.5,8.5C 58.5,8.5 60.5,8.5 62.5,8.5C 62.5432,4.1074 62.0432,3.77406 61,7.5C 60.5065,5.86586 60.3398,4.19919 60.5,2.5C 59.5,2.5 58.5,2.5 57.5,2.5 Z"/></g>
<g><path style="opacity:0.09" fill="#310f0a" d="M 54.5,8.5 C 55.5,8.83333 56.1667,9.5 56.5,10.5C 55.1667,10.5 54.5,9.83333 54.5,8.5 Z"/></g>
<g><path style="opacity:0.737" fill="#91b7bc" d="M 61.5,11.5 C 61.5,13.1667 61.5,14.8333 61.5,16.5C 61.5,16.8333 61.5,17.1667 61.5,17.5C 61.1667,17.5 60.8333,17.5 60.5,17.5C 59.8333,10.8333 59.1667,10.8333 58.5,17.5C 57.8333,17.5 57.1667,17.5 56.5,17.5C 56.5,17.1667 56.5,16.8333 56.5,16.5C 57.4511,15.0813 57.7845,13.4147 57.5,11.5C 58.8333,11.5 60.1667,11.5 61.5,11.5 Z"/></g>
<g><path style="opacity:0.004" fill="#000000" d="M 28.5,16.5 C 27.8333,15.1667 27.8333,15.1667 28.5,16.5 Z"/></g>
<g><path style="opacity:0.514" fill="#6c6160" d="M 56.5,10.5 C 58.1667,10.5 59.8333,10.5 61.5,10.5C 61.5,10.8333 61.5,11.1667 61.5,11.5C 60.1667,11.5 58.8333,11.5 57.5,11.5C 57.7845,13.4147 57.4511,15.0813 56.5,16.5C 56.1667,16.5 55.8333,16.5 55.5,16.5C 56.1495,14.5648 56.4828,12.5648 56.5,10.5 Z"/></g>
<g><path style="opacity:1" fill="#bef5fa" d="M 60.5,17.5 C 59.8333,17.5 59.1667,17.5 58.5,17.5C 59.1667,10.8333 59.8333,10.8333 60.5,17.5 Z"/></g>
<g><path style="opacity:0.004" fill="#000000" d="M 90.5,15.5 C 91.8333,16.1667 91.8333,16.1667 90.5,15.5 Z"/></g>
<g><path style="opacity:0.191" fill="#02262e" d="M 28.5,16.5 C 37.5,16.5 46.5,16.5 55.5,16.5C 47.5,17.1667 39.5,17.8333 31.5,18.5C 30.609,19.1098 29.609,19.4431 28.5,19.5C 27.8333,20.5 27.1667,21.5 26.5,22.5C 26.5,22.1667 26.5,21.8333 26.5,21.5C 26.5,20.5 26.5,19.5 26.5,18.5C 27.8333,18.5 28.5,17.8333 28.5,16.5 Z"/></g>
<g><path style="opacity:0.191" fill="#0e272e" d="M 61.5,10.5 C 61.8333,10.5 62.1667,10.5 62.5,10.5C 62.3573,12.2624 62.6906,13.9291 63.5,15.5C 72.1475,16.3319 80.8142,16.8319 89.5,17C 90.2438,18.0386 91.2438,18.5386 92.5,18.5C 92.5,19.1667 92.5,19.8333 92.5,20.5C 91.8333,20.1667 91.1667,19.8333 90.5,19.5C 89.5084,19.6716 88.8417,19.3382 88.5,18.5C 79.599,17.8081 70.599,17.1414 61.5,16.5C 61.5,14.8333 61.5,13.1667 61.5,11.5C 61.5,11.1667 61.5,10.8333 61.5,10.5 Z"/></g>
<g><path style="opacity:0.004" fill="#000000" d="M 26.5,18.5 C 25.8333,17.1667 25.8333,17.1667 26.5,18.5 Z"/></g>
<g><path style="opacity:0.655" fill="#047995" d="M 55.5,16.5 C 55.8333,16.5 56.1667,16.5 56.5,16.5C 56.5,16.8333 56.5,17.1667 56.5,17.5C 48.3501,18.4927 40.0168,18.8261 31.5,18.5C 39.5,17.8333 47.5,17.1667 55.5,16.5 Z"/></g>
<g><path style="opacity:0.655" fill="#057994" d="M 61.5,16.5 C 70.599,17.1414 79.599,17.8081 88.5,18.5C 79.3178,18.8266 70.3178,18.4933 61.5,17.5C 61.5,17.1667 61.5,16.8333 61.5,16.5 Z"/></g>
<g><path style="opacity:0.004" fill="#000100" d="M 92.5,17.5 C 93.8333,18.1667 93.8333,18.1667 92.5,17.5 Z"/></g>
<g><path style="opacity:1" fill="#07b0d7" d="M 56.5,17.5 C 57.1667,17.5 57.8333,17.5 58.5,17.5C 59.1667,17.5 59.8333,17.5 60.5,17.5C 60.8333,17.5 61.1667,17.5 61.5,17.5C 70.3178,18.4933 79.3178,18.8266 88.5,18.5C 88.8417,19.3382 89.5084,19.6716 90.5,19.5C 91.4663,33.7848 91.7996,48.1181 91.5,62.5C 91.5,63.1667 91.1667,63.5 90.5,63.5C 90.2435,61.2239 88.9102,60.0572 86.5,60C 87,59.5 87.5,59 88,58.5C 88.1667,53 88.3333,47.5 88.5,42C 88.4952,36.1238 87.8286,30.6238 86.5,25.5C 87.0065,24.1411 88.0065,23.1411 89.5,22.5C 88.8333,22.1667 88.1667,21.8333 87.5,21.5C 69.5249,22.6404 51.5249,22.8071 33.5,22C 31.9751,20.9914 30.3084,20.4914 28.5,20.5C 28.5,20.1667 28.5,19.8333 28.5,19.5C 29.609,19.4431 30.609,19.1098 31.5,18.5C 40.0168,18.8261 48.3501,18.4927 56.5,17.5 Z"/></g>
<g><path style="opacity:0.004" fill="#000001" d="M 23.5,19.5 C 24.8333,20.1667 24.8333,20.1667 23.5,19.5 Z"/></g>
<g><path style="opacity:0.004" fill="#000000" d="M 94.5,19.5 C 95.8333,20.1667 95.8333,20.1667 94.5,19.5 Z"/></g>
<g><path style="opacity:1" fill="#5fc8dd" d="M 28.5,20.5 C 30.3084,20.4914 31.9751,20.9914 33.5,22C 51.5249,22.8071 69.5249,22.6404 87.5,21.5C 88.1667,21.8333 88.8333,22.1667 89.5,22.5C 88.0065,23.1411 87.0065,24.1411 86.5,25.5C 87.8182,36.2648 87.8182,46.9315 86.5,57.5C 87.069,53.6707 86.4023,50.3373 84.5,47.5C 85.4227,43.9359 85.756,40.2693 85.5,36.5C 86.1582,35.2067 86.4915,33.7067 86.5,32C 86.5195,28.9268 85.8528,26.0935 84.5,23.5C 67.8333,23.5 51.1667,23.5 34.5,23.5C 34.6882,25.1033 34.1882,26.4366 33,27.5C 32.5002,37.4944 32.3335,47.4944 32.5,57.5C 31.1818,46.9315 31.1818,36.2648 32.5,25.5C 32.631,24.7611 32.4643,24.0944 32,23.5C 30.7083,24.7911 29.5417,24.7911 28.5,23.5C 28.5,22.5 28.5,21.5 28.5,20.5 Z"/></g>
<g><path style="opacity:0.102" fill="#001519" d="M 26.5,21.5 C 26.5,21.8333 26.5,22.1667 26.5,22.5C 25.5046,34.989 25.1713,47.6557 25.5,60.5C 25.1667,60.5 24.8333,60.5 24.5,60.5C 24.5,59.5 24.5,58.5 24.5,57.5C 23.8542,45.1201 24.5209,33.1201 26.5,21.5 Z"/></g>
<g><path style="opacity:1" fill="#02afd7" d="M 28.5,23.5 C 29.5417,24.7911 30.7083,24.7911 32,23.5C 32.4643,24.0944 32.631,24.7611 32.5,25.5C 31.1714,30.6238 30.5048,36.1238 30.5,42C 30.6667,47.5 30.8333,53 31,58.5C 32.8356,60.1311 32.3356,60.7978 29.5,60.5C 29.4326,61.9587 29.7659,63.2921 30.5,64.5C 29.8333,64.5 29.1667,64.5 28.5,64.5C 27.6618,64.1583 27.3284,63.4916 27.5,62.5C 27.1712,49.3226 27.5045,36.3226 28.5,23.5 Z"/></g>
<g><path style="opacity:0.098" fill="#001419" d="M 92.5,21.5 C 94.4791,33.1201 95.1458,45.1201 94.5,57.5C 94.5,58.1667 94.5,58.8333 94.5,59.5C 94.1667,59.5 93.8333,59.5 93.5,59.5C 93.8131,46.7536 93.4798,34.087 92.5,21.5 Z"/></g>
<g><path style="opacity:1" fill="#aadde3" d="M 85.5,36.5 C 77.8331,27.5641 69.8331,27.2307 61.5,35.5C 60.8999,36.9002 59.8999,37.9002 58.5,38.5C 57.0758,34.4759 54.4092,31.6426 50.5,30C 35.5441,29.7369 30.8775,36.5702 36.5,50.5C 34.6122,52.9878 33.9455,55.9878 34.5,59.5C 33.5,59.1667 32.8333,58.5 32.5,57.5C 32.3335,47.4944 32.5002,37.4944 33,27.5C 34.1882,26.4366 34.6882,25.1033 34.5,23.5C 51.1667,23.5 67.8333,23.5 84.5,23.5C 85.8528,26.0935 86.5195,28.9268 86.5,32C 86.4915,33.7067 86.1582,35.2067 85.5,36.5 Z"/></g>
<g><path style="opacity:0.678" fill="#006b84" d="M 90.5,19.5 C 91.1667,19.8333 91.8333,20.1667 92.5,20.5C 92.5,20.8333 92.5,21.1667 92.5,21.5C 93.4798,34.087 93.8131,46.7536 93.5,59.5C 93.7373,60.791 93.404,61.791 92.5,62.5C 92.1667,62.5 91.8333,62.5 91.5,62.5C 91.7996,48.1181 91.4663,33.7848 90.5,19.5 Z"/></g>
<g><path style="opacity:0.686" fill="#007089" d="M 28.5,19.5 C 28.5,19.8333 28.5,20.1667 28.5,20.5C 28.5,21.5 28.5,22.5 28.5,23.5C 27.5045,36.3226 27.1712,49.3226 27.5,62.5C 27.1667,62.5 26.8333,62.5 26.5,62.5C 25.6618,62.1583 25.3284,61.4916 25.5,60.5C 25.1713,47.6557 25.5046,34.989 26.5,22.5C 27.1667,21.5 27.8333,20.5 28.5,19.5 Z"/></g>
<g><path style="opacity:0.005" fill="#000000" d="M 106.5,52.5 C 106.511,49.9991 107.178,49.8324 108.5,52C 107.906,52.4643 107.239,52.631 106.5,52.5 Z"/></g>
<g><path style="opacity:0.004" fill="#000000" d="M 12.5,52.5 C 11.8333,51.1667 11.8333,51.1667 12.5,52.5 Z"/></g>
<g><path style="opacity:0.518" fill="#86241e" d="M 18.5,54.5 C 17.1667,54.5 15.8333,54.5 14.5,54.5C 14.5,55.8333 14.5,57.1667 14.5,58.5C 13.5489,57.0813 13.2155,55.4147 13.5,53.5C 15.4147,53.2155 17.0813,53.5489 18.5,54.5 Z"/></g>
<g><path style="opacity:0.525" fill="#82231d" d="M 104.5,58.5 C 104.5,57.5 104.5,56.5 104.5,55.5C 102.653,54.4271 100.653,54.4271 98.5,55.5C 98.5,55.1667 98.5,54.8333 98.5,54.5C 100.717,53.6314 103.05,53.298 105.5,53.5C 105.784,55.4147 105.451,57.0813 104.5,58.5 Z"/></g>
<g><path style="opacity:0.063" fill="#250c08" d="M 20.5,54.5 C 21.8333,54.5 22.5,55.1667 22.5,56.5C 21.5,56.1667 20.8333,55.5 20.5,54.5 Z"/></g>
<g><path style="opacity:0.2" fill="#38130f" d="M 12.5,52.5 C 15.6981,51.9644 18.3647,52.631 20.5,54.5C 19.8333,54.5 19.1667,54.5 18.5,54.5C 17.0813,53.5489 15.4147,53.2155 13.5,53.5C 13.2155,55.4147 13.5489,57.0813 14.5,58.5C 16.8176,60.1852 17.8176,62.5185 17.5,65.5C 17.1667,65.5 16.8333,65.5 16.5,65.5C 16.5,65.1667 16.5,64.8333 16.5,64.5C 13.6121,61.066 12.2788,57.066 12.5,52.5 Z"/></g>
<g><path style="opacity:0.005" fill="#010000" d="M 116.5,58.5 C 116.511,55.9991 117.178,55.8324 118.5,58C 117.906,58.4643 117.239,58.631 116.5,58.5 Z"/></g>
<g><path style="opacity:0.004" fill="#010000" d="M 2.5,58.5 C 1.83333,57.1667 1.83333,57.1667 2.5,58.5 Z"/></g>
<g><path style="opacity:1" fill="#f74338" d="M 104.5,55.5 C 104.5,56.5 104.5,57.5 104.5,58.5C 103.25,58.5774 102.417,59.244 102,60.5C 101.1,59.2298 99.9337,58.2298 98.5,57.5C 100.411,56.5233 102.411,55.8567 104.5,55.5 Z"/></g>
<g><path style="opacity:1" fill="#e64234" d="M 18.5,54.5 C 19.1667,54.5 19.8333,54.5 20.5,54.5C 20.8333,55.5 21.5,56.1667 22.5,56.5C 23.6567,59.3074 23.6567,61.9741 22.5,64.5C 20.9582,65.3007 19.2915,65.634 17.5,65.5C 17.8176,62.5185 16.8176,60.1852 14.5,58.5C 14.5,57.1667 14.5,55.8333 14.5,54.5C 15.8333,54.5 17.1667,54.5 18.5,54.5 Z"/></g>
<g><path style="opacity:1" fill="#d13e2f" d="M 104.5,55.5 C 102.411,55.8567 100.411,56.5233 98.5,57.5C 99.9337,58.2298 101.1,59.2298 102,60.5C 102.417,59.244 103.25,58.5774 104.5,58.5C 103.061,60.588 102.394,62.9214 102.5,65.5C 100.5,65.5 98.5,65.5 96.5,65.5C 96.1667,64.8333 95.8333,64.1667 95.5,63.5C 95.0181,60.1694 96.0181,57.5027 98.5,55.5C 100.653,54.4271 102.653,54.4271 104.5,55.5 Z"/></g>
<g><path style="opacity:0.031" fill="#32110c" d="M 116.5,58.5 C 116.5,59.8333 116.5,61.1667 116.5,62.5C 116.5,63.8333 116.5,65.1667 116.5,66.5C 116.5,67.1667 116.5,67.8333 116.5,68.5C 116.167,68.5 115.833,68.5 115.5,68.5C 115.664,65.8127 115.497,63.146 115,60.5C 112.189,58.8203 110.356,59.4869 109.5,62.5C 109.167,62.5 108.833,62.5 108.5,62.5C 108.5,61.1667 108.5,59.8333 108.5,58.5C 111.167,58.5 113.833,58.5 116.5,58.5 Z"/></g>
<g><path style="opacity:1" fill="#f74438" d="M 96.5,59.5 C 97.9311,59.8807 98.7645,60.8807 99,62.5C 99.3333,62.1667 99.6667,61.8333 100,61.5C 100.483,62.448 100.649,63.448 100.5,64.5C 97.0897,64.6162 95.7564,62.9496 96.5,59.5 Z"/></g>
<g><path style="opacity:0.208" fill="#37100d" d="M 22.5,56.5 C 23.1667,56.8333 23.8333,57.1667 24.5,57.5C 24.5,58.5 24.5,59.5 24.5,60.5C 24.366,62.2915 24.6993,63.9582 25.5,65.5C 24.5,65.5 23.5,65.5 22.5,65.5C 22.5,65.1667 22.5,64.8333 22.5,64.5C 23.6567,61.9741 23.6567,59.3074 22.5,56.5 Z"/></g>
<g><path style="opacity:0.18" fill="#3e0a07" d="M 98.5,54.5 C 98.5,54.8333 98.5,55.1667 98.5,55.5C 96.0181,57.5027 95.0181,60.1694 95.5,63.5C 95.1667,63.5 94.8333,63.5 94.5,63.5C 94.5,62.1667 94.5,60.8333 94.5,59.5C 94.5,58.8333 94.5,58.1667 94.5,57.5C 95.6366,56.2112 96.9699,55.2112 98.5,54.5 Z"/></g>
<g><path style="opacity:1" fill="#e33e33" d="M 115.5,68.5 C 114.5,69.1667 113.5,69.8333 112.5,70.5C 110.833,70.5 109.167,70.5 107.5,70.5C 107.5,69.5 107.5,68.5 107.5,67.5C 107.5,67.1667 107.5,66.8333 107.5,66.5C 109.104,65.713 109.771,64.3797 109.5,62.5C 110.356,59.4869 112.189,58.8203 115,60.5C 115.497,63.146 115.664,65.8127 115.5,68.5 Z"/></g>
<g><path style="opacity:1" fill="#30bbda" d="M 32.5,25.5 C 31.1818,36.2648 31.1818,46.9315 32.5,57.5C 32.8333,58.5 33.5,59.1667 34.5,59.5C 34.6107,60.1174 34.944,60.6174 35.5,61C 45.4944,61.4998 55.4944,61.6665 65.5,61.5C 71.5092,61.6662 77.5092,61.4995 83.5,61C 84.7101,59.9609 85.7101,58.7942 86.5,57.5C 87.8182,46.9315 87.8182,36.2648 86.5,25.5C 87.8286,30.6238 88.4952,36.1238 88.5,42C 88.3333,47.5 88.1667,53 88,58.5C 87.5,59 87,59.5 86.5,60C 88.9102,60.0572 90.2435,61.2239 90.5,63.5C 90.5,64.1667 90.1667,64.5 89.5,64.5C 88.5,64.5 87.5,64.5 86.5,64.5C 86.3893,63.8826 86.056,63.3826 85.5,63C 76.8333,62.8333 68.1667,62.6667 59.5,62.5C 50.4733,62.5019 41.8066,63.1685 33.5,64.5C 32.5,64.5 31.5,64.5 30.5,64.5C 29.7659,63.2921 29.4326,61.9587 29.5,60.5C 32.3356,60.7978 32.8356,60.1311 31,58.5C 30.8333,53 30.6667,47.5 30.5,42C 30.5048,36.1238 31.1714,30.6238 32.5,25.5 Z"/></g>
<g><path style="opacity:1" fill="#eab186" d="M 66.5,54.5 C 66.5,54.8333 66.5,55.1667 66.5,55.5C 62.2984,55.1832 58.2984,55.5166 54.5,56.5C 53.1667,56.5 52.5,57.1667 52.5,58.5C 56.97,59.4861 61.6367,59.8195 66.5,59.5C 66.5,60.1667 66.1667,60.5 65.5,60.5C 60.8333,60.5 56.1667,60.5 51.5,60.5C 51.2606,58.5328 51.5939,56.6995 52.5,55C 57.1548,54.5008 61.8215,54.3342 66.5,54.5 Z"/></g>
<g><path style="opacity:1" fill="#f49e63" d="M 54.5,56.5 C 58.2984,55.5166 62.2984,55.1832 66.5,55.5C 67.8333,56.8333 67.8333,58.1667 66.5,59.5C 61.6367,59.8195 56.97,59.4861 52.5,58.5C 57.2137,58.8266 61.8804,58.4933 66.5,57.5C 62.5546,56.5091 58.5546,56.1758 54.5,56.5 Z"/></g>
<g><path style="opacity:1" fill="#fd8f49" d="M 54.5,56.5 C 58.5546,56.1758 62.5546,56.5091 66.5,57.5C 61.8804,58.4933 57.2137,58.8266 52.5,58.5C 52.5,57.1667 53.1667,56.5 54.5,56.5 Z"/></g>
<g><path style="opacity:1" fill="#aedee2" d="M 84.5,47.5 C 86.4023,50.3373 87.069,53.6707 86.5,57.5C 85.7101,58.7942 84.7101,59.9609 83.5,61C 77.5092,61.4995 71.5092,61.6662 65.5,61.5C 65.5,61.1667 65.5,60.8333 65.5,60.5C 66.1667,60.5 66.5,60.1667 66.5,59.5C 67.8333,58.1667 67.8333,56.8333 66.5,55.5C 66.5,55.1667 66.5,54.8333 66.5,54.5C 74.2108,56.0494 80.2108,53.7161 84.5,47.5 Z"/></g>
<g><path style="opacity:1" fill="#3abbdb" d="M 58.5,38.5 C 58.5,41.1667 58.5,43.8333 58.5,46.5C 52.4175,55.3192 45.0842,56.6525 36.5,50.5C 30.8775,36.5702 35.5441,29.7369 50.5,30C 54.4092,31.6426 57.0758,34.4759 58.5,38.5 Z"/></g>
<g><path style="opacity:1" fill="#addadd" d="M 61.5,48.5 C 63.641,50.1217 65.3076,52.1217 66.5,54.5C 61.8215,54.3342 57.1548,54.5008 52.5,55C 51.5939,56.6995 51.2606,58.5328 51.5,60.5C 56.1667,60.5 60.8333,60.5 65.5,60.5C 65.5,60.8333 65.5,61.1667 65.5,61.5C 55.4944,61.6665 45.4944,61.4998 35.5,61C 34.944,60.6174 34.6107,60.1174 34.5,59.5C 33.9455,55.9878 34.6122,52.9878 36.5,50.5C 45.0842,56.6525 52.4175,55.3192 58.5,46.5C 59.1174,46.3893 59.6174,46.056 60,45.5C 60.2321,46.7375 60.7321,47.7375 61.5,48.5 Z"/></g>
<g><path style="opacity:1" fill="#3cbcdb" d="M 85.5,36.5 C 85.756,40.2693 85.4227,43.9359 84.5,47.5C 80.2108,53.7161 74.2108,56.0494 66.5,54.5C 65.3076,52.1217 63.641,50.1217 61.5,48.5C 61.5,44.1667 61.5,39.8333 61.5,35.5C 69.8331,27.2307 77.8331,27.5641 85.5,36.5 Z"/></g>
<g><path style="opacity:1" fill="#e6eaeb" d="M 38.5,46.5 C 38.081,42.2273 38.7476,38.2273 40.5,34.5C 45.9948,31.4479 50.8281,32.4479 55,37.5C 56.5305,45.1098 53.5305,49.7765 46,51.5C 42.8958,50.7007 40.3958,49.034 38.5,46.5 Z"/></g>
<g><path style="opacity:1" fill="#989798" d="M 50.5,44.5 C 50.8333,44.5 51.1667,44.5 51.5,44.5C 49.735,47.4488 47.4017,48.1154 44.5,46.5C 46.8583,46.7475 48.8583,46.0808 50.5,44.5 Z"/></g>
<g><path style="opacity:1" fill="#6eccde" d="M 61.5,35.5 C 61.5,39.8333 61.5,44.1667 61.5,48.5C 60.7321,47.7375 60.2321,46.7375 60,45.5C 59.6174,46.056 59.1174,46.3893 58.5,46.5C 58.5,43.8333 58.5,41.1667 58.5,38.5C 59.8999,37.9002 60.8999,36.9002 61.5,35.5 Z"/></g>
<g><path style="opacity:1" fill="#bae1eb" d="M 40.5,34.5 C 38.7476,38.2273 38.081,42.2273 38.5,46.5C 37.3592,43.3601 37.1925,40.0267 38,36.5C 38.7083,35.6195 39.5416,34.9528 40.5,34.5 Z"/></g>
<g><path style="opacity:1" fill="#615f60" d="M 49.5,38.5 C 51.2798,39.9899 51.9465,41.9899 51.5,44.5C 51.1667,44.5 50.8333,44.5 50.5,44.5C 50.4828,42.4352 50.1495,40.4352 49.5,38.5 Z"/></g>
<g><path style="opacity:1" fill="#221f20" d="M 49.5,38.5 C 50.1495,40.4352 50.4828,42.4352 50.5,44.5C 48.8583,46.0808 46.8583,46.7475 44.5,46.5C 43.5,46.1667 42.8333,45.5 42.5,44.5C 42.6432,40.027 44.9766,38.027 49.5,38.5 Z"/></g>
<g><path style="opacity:1" fill="#3e3b3c" d="M 49.5,38.5 C 44.9766,38.027 42.6432,40.027 42.5,44.5C 41.0147,38.325 43.348,36.325 49.5,38.5 Z"/></g>
<g><path style="opacity:1" fill="#e4edef" d="M 70.5,32.5 C 79.006,32.1704 82.8393,36.1704 82,44.5C 79.0812,50.0248 74.5812,51.8581 68.5,50C 61.4025,43.11 62.0692,37.2767 70.5,32.5 Z"/></g>
<g><path style="opacity:1" fill="#c1bfbf" d="M 68.5,44.5 C 70.4786,46.1675 72.812,46.8342 75.5,46.5C 73.9119,48.6157 71.9119,48.949 69.5,47.5C 68.8728,46.5832 68.5394,45.5832 68.5,44.5 Z"/></g>
<g><path style="opacity:1" fill="#201c1d" d="M 75.5,38.5 C 77.2798,39.9899 77.9465,41.9899 77.5,44.5C 77.1667,44.5 76.8333,44.5 76.5,44.5C 74.5,44.5 72.5,44.5 70.5,44.5C 70.5,42.5 70.5,40.5 70.5,38.5C 72.1667,38.5 73.8333,38.5 75.5,38.5 Z"/></g>
<g><path style="opacity:1" fill="#383435" d="M 69.5,37.5 C 71.7354,37.2053 73.7354,37.5386 75.5,38.5C 73.8333,38.5 72.1667,38.5 70.5,38.5C 70.5,40.5 70.5,42.5 70.5,44.5C 72.5,44.5 74.5,44.5 76.5,44.5C 76.1667,45.1667 75.8333,45.8333 75.5,46.5C 72.812,46.8342 70.4786,46.1675 68.5,44.5C 68.5172,42.4352 68.8505,40.4352 69.5,38.5C 69.5,38.1667 69.5,37.8333 69.5,37.5 Z"/></g>
<g><path style="opacity:1" fill="#7c7b7b" d="M 69.5,38.5 C 68.8505,40.4352 68.5172,42.4352 68.5,44.5C 67.8614,43.9032 67.528,43.0698 67.5,42C 67.3866,40.3009 68.0532,39.1342 69.5,38.5 Z"/></g>
<g><path style="opacity:1" fill="#acabac" d="M 69.5,37.5 C 76.6504,34.9892 79.3171,37.3226 77.5,44.5C 77.9465,41.9899 77.2798,39.9899 75.5,38.5C 73.7354,37.5386 71.7354,37.2053 69.5,37.5 Z"/></g>
<g><path style="opacity:0.826" fill="#a32c24" d="M 4.5,60.5 C 3.80749,64.7527 4.80749,68.4193 7.5,71.5C 6.39105,71.4431 5.39105,71.1098 4.5,70.5C 3.21846,67.0641 3.21846,63.7307 4.5,60.5 Z"/></g>
<g><path style="opacity:0.188" fill="#06242c" d="M 26.5,62.5 C 26.8333,62.5 27.1667,62.5 27.5,62.5C 27.3284,63.4916 27.6618,64.1583 28.5,64.5C 28.8333,65.1667 29.1667,65.8333 29.5,66.5C 28.391,66.4431 27.391,66.1098 26.5,65.5C 26.5,64.5 26.5,63.5 26.5,62.5 Z"/></g>
<g><path style="opacity:0.082" fill="#1a0605" d="M 116.5,62.5 C 119.167,63.8333 119.167,65.1667 116.5,66.5C 116.5,65.1667 116.5,63.8333 116.5,62.5 Z"/></g>
<g><path style="opacity:0.376" fill="#33110d" d="M 2.5,58.5 C 5.16667,58.5 7.83333,58.5 10.5,58.5C 10.5,59.8333 10.5,61.1667 10.5,62.5C 9.12629,59.6608 7.12629,58.9941 4.5,60.5C 3.21846,63.7307 3.21846,67.0641 4.5,70.5C 3.83333,70.5 3.16667,70.5 2.5,70.5C 2.77112,68.1789 2.10446,66.1789 0.5,64.5C 2.10446,62.8211 2.77112,60.8211 2.5,58.5 Z"/></g>
<g><path style="opacity:1" fill="#e04334" d="M 10.5,62.5 C 10.5,62.8333 10.5,63.1667 10.5,63.5C 10.8564,65.1898 11.8564,66.1898 13.5,66.5C 12.8333,68.1667 12.1667,69.8333 11.5,71.5C 10.1667,71.5 8.83333,71.5 7.5,71.5C 4.80749,68.4193 3.80749,64.7527 4.5,60.5C 7.12629,58.9941 9.12629,59.6608 10.5,62.5 Z"/></g>
<g><path style="opacity:0.949" fill="#08a1c5" d="M 86.5,64.5 C 87.5,64.5 88.5,64.5 89.5,64.5C 89.3893,65.1174 89.056,65.6174 88.5,66C 81.1742,66.4997 73.8409,66.6663 66.5,66.5C 66.5,67.5 66.5,68.5 66.5,69.5C 70.3123,70.3238 74.3123,70.8238 78.5,71C 79.056,71.3826 79.3893,71.8826 79.5,72.5C 74.8333,72.5 70.1667,72.5 65.5,72.5C 65.5,71.5 65.5,70.5 65.5,69.5C 65.5,68.8333 65.5,68.1667 65.5,67.5C 65.5,66.5 65.5,65.5 65.5,64.5C 72.5,64.5 79.5,64.5 86.5,64.5 Z"/></g>
<g><path style="opacity:0.188" fill="#1a1b1d" d="M 94.5,63.5 C 94.8333,63.5 95.1667,63.5 95.5,63.5C 95.8333,64.1667 96.1667,64.8333 96.5,65.5C 95.5,65.5 94.5,65.5 93.5,65.5C 93.8333,64.8333 94.1667,64.1667 94.5,63.5 Z"/></g>
<g><path style="opacity:0.196" fill="#331911" d="M 106.5,52.5 C 107.013,56.79 106.013,60.6233 103.5,64C 104.416,64.3742 105.25,64.8742 106,65.5C 106.417,64.244 107.25,63.5774 108.5,63.5C 107.89,64.391 107.557,65.391 107.5,66.5C 107.5,66.8333 107.5,67.1667 107.5,67.5C 105.833,66.8333 104.167,66.1667 102.5,65.5C 102.394,62.9214 103.061,60.588 104.5,58.5C 105.451,57.0813 105.784,55.4147 105.5,53.5C 103.05,53.298 100.717,53.6314 98.5,54.5C 100.635,52.631 103.302,51.9644 106.5,52.5 Z"/></g>
<g><path style="opacity:0.094" fill="#2f1910" d="M 10.5,63.5 C 11.7498,63.5774 12.5831,64.244 13,65.5C 14.0113,64.6634 15.1779,64.33 16.5,64.5C 16.5,64.8333 16.5,65.1667 16.5,65.5C 15.391,65.5569 14.391,65.8902 13.5,66.5C 11.8564,66.1898 10.8564,65.1898 10.5,63.5 Z"/></g>
<g><path style="opacity:0.569" fill="#7e201c" d="M 108.5,62.5 C 108.833,62.5 109.167,62.5 109.5,62.5C 109.771,64.3797 109.104,65.713 107.5,66.5C 107.557,65.391 107.89,64.391 108.5,63.5C 108.5,63.1667 108.5,62.8333 108.5,62.5 Z"/></g>
<g><path style="opacity:0.483" fill="#00596d" d="M 28.5,64.5 C 29.1667,64.5 29.8333,64.5 30.5,64.5C 30.6107,65.1174 30.944,65.6174 31.5,66C 38.6787,66.1715 45.6787,66.6715 52.5,67.5C 44.747,67.799 37.0804,67.4657 29.5,66.5C 29.1667,65.8333 28.8333,65.1667 28.5,64.5 Z"/></g>
<g><path style="opacity:1" fill="#e7c170" d="M 96.5,66.5 C 98.8568,66.3367 101.19,66.5034 103.5,67C 102.833,67.3333 102.167,67.6667 101.5,68C 102.737,68.2321 103.737,68.7321 104.5,69.5C 103.833,69.5 103.167,69.5 102.5,69.5C 100.181,69.0075 98.1815,68.0075 96.5,66.5 Z"/></g>
<g><path style="opacity:0.066" fill="#031316" d="M 29.5,66.5 C 37.0804,67.4657 44.747,67.799 52.5,67.5C 52.5,68.1667 52.5,68.8333 52.5,69.5C 48.5,69.5 44.5,69.5 40.5,69.5C 36.5575,69.1254 32.8909,68.1254 29.5,66.5 Z"/></g>
<g><path style="opacity:0.141" fill="#082831" d="M 91.5,62.5 C 91.8333,62.5 92.1667,62.5 92.5,62.5C 92.5,63.5 92.5,64.5 92.5,65.5C 88.0478,67.7593 83.3811,69.0927 78.5,69.5C 74.5,69.5 70.5,69.5 66.5,69.5C 66.5,68.5 66.5,67.5 66.5,66.5C 73.8409,66.6663 81.1742,66.4997 88.5,66C 89.056,65.6174 89.3893,65.1174 89.5,64.5C 90.1667,64.5 90.5,64.1667 90.5,63.5C 91.1667,63.5 91.5,63.1667 91.5,62.5 Z"/></g>
<g><path style="opacity:0.98" fill="#f0aa59" d="M 96.5,66.5 C 96.5,66.1667 96.5,65.8333 96.5,65.5C 98.5,65.5 100.5,65.5 102.5,65.5C 104.167,66.1667 105.833,66.8333 107.5,67.5C 107.5,68.5 107.5,69.5 107.5,70.5C 107.5,70.8333 107.5,71.1667 107.5,71.5C 106.833,71.5 106.167,71.5 105.5,71.5C 105.167,70.8333 104.833,70.1667 104.5,69.5C 103.737,68.7321 102.737,68.2321 101.5,68C 102.167,67.6667 102.833,67.3333 103.5,67C 101.19,66.5034 98.8568,66.3367 96.5,66.5 Z"/></g>
<g><path style="opacity:1" fill="#eab262" d="M 22.5,64.5 C 22.5,64.8333 22.5,65.1667 22.5,65.5C 22.5,65.8333 22.5,66.1667 22.5,66.5C 19.3288,67.4362 16.6621,69.1029 14.5,71.5C 13.391,71.5569 12.391,71.8902 11.5,72.5C 11.5,72.1667 11.5,71.8333 11.5,71.5C 12.1667,69.8333 12.8333,68.1667 13.5,66.5C 14.391,65.8902 15.391,65.5569 16.5,65.5C 16.8333,65.5 17.1667,65.5 17.5,65.5C 19.2915,65.634 20.9582,65.3007 22.5,64.5 Z"/></g>
<g><path style="opacity:1" fill="#a1dce4" d="M 65.5,67.5 C 65.5,68.1667 65.5,68.8333 65.5,69.5C 50.8333,68.8333 50.8333,68.1667 65.5,67.5 Z"/></g>
<g><path style="opacity:0.824" fill="#2c697a" d="M 92.5,65.5 C 92.8333,65.5 93.1667,65.5 93.5,65.5C 94.5,65.5 95.5,65.5 96.5,65.5C 96.5,65.8333 96.5,66.1667 96.5,66.5C 95.2749,67.1522 94.6083,68.3189 94.5,70C 95.1586,72.3059 95.1586,74.4726 94.5,76.5C 94.2624,78.4044 93.2624,79.7377 91.5,80.5C 91.5569,79.391 91.8902,78.391 92.5,77.5C 92.5,73.5 92.5,69.5 92.5,65.5 Z"/></g>
<g><path style="opacity:1" fill="#24b0d2" d="M 96.5,66.5 C 98.1815,68.0075 100.181,69.0075 102.5,69.5C 102.973,70.9063 103.973,71.573 105.5,71.5C 106.167,71.5 106.833,71.5 107.5,71.5C 107.5,72.1667 107.833,72.5 108.5,72.5C 109.881,74.2741 109.548,75.7741 107.5,77C 104.798,77.84 102.132,78.6733 99.5,79.5C 98.1007,78.1103 96.4341,77.1103 94.5,76.5C 95.1586,74.4726 95.1586,72.3059 94.5,70C 94.6083,68.3189 95.2749,67.1522 96.5,66.5 Z"/></g>
<g><path style="opacity:1" fill="#62b1ae" d="M 22.5,66.5 C 20.7969,69.632 18.1302,71.2986 14.5,71.5C 16.6621,69.1029 19.3288,67.4362 22.5,66.5 Z"/></g>
<g><path style="opacity:0.487" fill="#006279" d="M 40.5,69.5 C 44.5,69.5 48.5,69.5 52.5,69.5C 48.5,70.1667 44.5,70.8333 40.5,71.5C 40.5,71.8333 40.5,72.1667 40.5,72.5C 38.7867,74.8504 36.4534,75.8504 33.5,75.5C 33.5,75.1667 33.5,74.8333 33.5,74.5C 33.8333,74.5 34.1667,74.5 34.5,74.5C 36.754,73.8763 38.4206,72.543 39.5,70.5C 39.5,69.8333 39.8333,69.5 40.5,69.5 Z"/></g>
<g><path style="opacity:0.489" fill="#005b70" d="M 66.5,69.5 C 70.5,69.5 74.5,69.5 78.5,69.5C 79.1667,69.8333 79.8333,70.1667 80.5,70.5C 80.5,71.1667 80.5,71.8333 80.5,72.5C 80.1667,72.5 79.8333,72.5 79.5,72.5C 79.3893,71.8826 79.056,71.3826 78.5,71C 74.3123,70.8238 70.3123,70.3238 66.5,69.5 Z"/></g>
<g><path style="opacity:0.004" fill="#000000" d="M 2.5,70.5 C 1.83333,71.1667 1.83333,71.1667 2.5,70.5 Z"/></g>
<g><path style="opacity:0.839" fill="#0f9ec1" d="M 30.5,64.5 C 31.5,64.5 32.5,64.5 33.5,64.5C 40.1667,64.5 46.8333,64.5 53.5,64.5C 53.5,66.8333 53.5,69.1667 53.5,71.5C 49.1667,71.5 44.8333,71.5 40.5,71.5C 44.5,70.8333 48.5,70.1667 52.5,69.5C 52.5,68.8333 52.5,68.1667 52.5,67.5C 45.6787,66.6715 38.6787,66.1715 31.5,66C 30.944,65.6174 30.6107,65.1174 30.5,64.5 Z"/></g>
<g><path style="opacity:1" fill="#aeb789" d="M 102.5,69.5 C 103.167,69.5 103.833,69.5 104.5,69.5C 104.833,70.1667 105.167,70.8333 105.5,71.5C 103.973,71.573 102.973,70.9063 102.5,69.5 Z"/></g>
<g><path style="opacity:0.624" fill="#a63f2a" d="M 107.5,70.5 C 109.167,70.5 110.833,70.5 112.5,70.5C 111.5,71.1667 110.5,71.8333 109.5,72.5C 109.167,72.5 108.833,72.5 108.5,72.5C 107.833,72.5 107.5,72.1667 107.5,71.5C 107.5,71.1667 107.5,70.8333 107.5,70.5 Z"/></g>
<g><path style="opacity:0.004" fill="#000000" d="M 116.5,70.5 C 117.833,71.1667 117.833,71.1667 116.5,70.5 Z"/></g>
<g><path style="opacity:0.153" fill="#341913" d="M 4.5,70.5 C 5.39105,71.1098 6.39105,71.4431 7.5,71.5C 8.83333,71.5 10.1667,71.5 11.5,71.5C 11.5,71.8333 11.5,72.1667 11.5,72.5C 11.1667,72.5 10.8333,72.5 10.5,72.5C 9.83333,72.5 9.16667,72.5 8.5,72.5C 7.16667,72.5 5.83333,72.5 4.5,72.5C 4.5,71.8333 4.5,71.1667 4.5,70.5 Z"/></g>
<g><path style="opacity:0.173" fill="#06181d" d="M 39.5,70.5 C 38.4206,72.543 36.754,73.8763 34.5,74.5C 35.5387,72.4689 37.2054,71.1355 39.5,70.5 Z"/></g>
<g><path style="opacity:0.998" fill="#24b5d9" d="M 86.5,64.5 C 79.5,64.5 72.5,64.5 65.5,64.5C 65.5,65.5 65.5,66.5 65.5,67.5C 50.8333,68.1667 50.8333,68.8333 65.5,69.5C 65.5,70.5 65.5,71.5 65.5,72.5C 70.1667,72.5 74.8333,72.5 79.5,72.5C 79.8333,72.5 80.1667,72.5 80.5,72.5C 80.5,73.8333 80.5,75.1667 80.5,76.5C 81.8333,76.5 83.1667,76.5 84.5,76.5C 84.5,78.1667 84.5,79.8333 84.5,81.5C 82.0246,82.6874 81.0246,84.6874 81.5,87.5C 80.8333,91.5 80.1667,95.5 79.5,99.5C 79.5,98.5 79.5,97.5 79.5,96.5C 78.5,96.5 77.5,96.5 76.5,96.5C 76.6662,90.1579 76.4995,83.8246 76,77.5C 75.6174,76.944 75.1174,76.6107 74.5,76.5C 74.3893,75.8826 74.056,75.3826 73.5,75C 64.1667,74.3333 54.8333,74.3333 45.5,75C 44.944,75.3826 44.6107,75.8826 44.5,76.5C 43.5104,82.31 43.1771,88.31 43.5,94.5C 42.9563,87.1943 41.9563,79.861 40.5,72.5C 40.5,72.1667 40.5,71.8333 40.5,71.5C 44.8333,71.5 49.1667,71.5 53.5,71.5C 53.5,69.1667 53.5,66.8333 53.5,64.5C 46.8333,64.5 40.1667,64.5 33.5,64.5C 41.8066,63.1685 50.4733,62.5019 59.5,62.5C 68.1667,62.6667 76.8333,62.8333 85.5,63C 86.056,63.3826 86.3893,63.8826 86.5,64.5 Z"/></g>
<g><path style="opacity:0.165" fill="#05171c" d="M 80.5,70.5 C 82.3407,71.4023 83.674,72.7356 84.5,74.5C 82.9382,74.2671 81.6049,73.6005 80.5,72.5C 80.5,71.8333 80.5,71.1667 80.5,70.5 Z"/></g>
<g><path style="opacity:0.082" fill="#250c07" d="M 115.5,68.5 C 115.833,68.5 116.167,68.5 116.5,68.5C 116.5,69.1667 116.5,69.8333 116.5,70.5C 115.167,70.5 114.5,71.1667 114.5,72.5C 113.167,72.5 111.833,72.5 110.5,72.5C 110.167,72.5 109.833,72.5 109.5,72.5C 110.5,71.8333 111.5,71.1667 112.5,70.5C 113.5,69.8333 114.5,69.1667 115.5,68.5 Z"/></g>
<g><path style="opacity:0.004" fill="#000000" d="M 4.5,72.5 C 3.83333,73.1667 3.83333,73.1667 4.5,72.5 Z"/></g>
<g><path style="opacity:0.004" fill="#000000" d="M 114.5,72.5 C 115.833,73.1667 115.833,73.1667 114.5,72.5 Z"/></g>
<g><path style="opacity:1" fill="#78c6ca" d="M 74.5,76.5 C 64.5,75.1667 54.5,75.1667 44.5,76.5C 44.6107,75.8826 44.944,75.3826 45.5,75C 54.8333,74.3333 64.1667,74.3333 73.5,75C 74.056,75.3826 74.3893,75.8826 74.5,76.5 Z"/></g>
<g><path style="opacity:0.008" fill="#020d10" d="M 84.5,74.5 C 85.8333,74.5 87.1667,74.5 88.5,74.5C 88.7845,76.4147 88.4511,78.0813 87.5,79.5C 87.8432,77.5168 87.1765,76.1834 85.5,75.5C 84.8333,75.5 84.5,75.1667 84.5,74.5 Z"/></g>
<g><path style="opacity:1" fill="#1baed1" d="M 22.5,65.5 C 23.5,65.5 24.5,65.5 25.5,65.5C 25.6576,68.9023 25.3242,72.2356 24.5,75.5C 22.4939,76.4851 20.8273,77.8184 19.5,79.5C 16.8683,78.6733 14.2017,77.84 11.5,77C 9.45232,75.7741 9.11899,74.2741 10.5,72.5C 10.8333,72.5 11.1667,72.5 11.5,72.5C 12.391,71.8902 13.391,71.5569 14.5,71.5C 18.1302,71.2986 20.7969,69.632 22.5,66.5C 22.5,66.1667 22.5,65.8333 22.5,65.5 Z"/></g>
<g><path style="opacity:0.11" fill="#11292f" d="M 25.5,65.5 C 25.8333,65.5 26.1667,65.5 26.5,65.5C 26.4802,67.143 27.1468,68.4763 28.5,69.5C 26.7711,71.8511 26.1044,74.5178 26.5,77.5C 25.8333,76.8333 25.1667,76.1667 24.5,75.5C 25.3242,72.2356 25.6576,68.9023 25.5,65.5 Z"/></g>
<g><path style="opacity:0.043" fill="#0f2930" d="M 8.5,72.5 C 9.16667,72.5 9.83333,72.5 10.5,72.5C 9.11899,74.2741 9.45232,75.7741 11.5,77C 14.2017,77.84 16.8683,78.6733 19.5,79.5C 19.5,80.1667 19.5,80.8333 19.5,81.5C 19.5,82.1667 19.5,82.8333 19.5,83.5C 18.596,82.791 18.2627,81.791 18.5,80.5C 15.2515,80.5842 12.2515,79.7508 9.5,78C 8.59391,76.3005 8.26057,74.4672 8.5,72.5 Z"/></g>
<g><path style="opacity:0.037" fill="#010e12" d="M 33.5,74.5 C 33.5,74.8333 33.5,75.1667 33.5,75.5C 32.5655,76.5676 32.2322,77.901 32.5,79.5C 30.744,78.4479 30.0773,76.7812 30.5,74.5C 31.5,74.5 32.5,74.5 33.5,74.5 Z"/></g>
<g><path style="opacity:1" fill="#eac587" d="M 74.5,76.5 C 74.5,79.5 74.5,82.5 74.5,85.5C 73.5084,85.6716 72.8417,85.3382 72.5,84.5C 72.5,82.1667 72.5,79.8333 72.5,77.5C 63.5,77.5 54.5,77.5 45.5,77.5C 45.5,80.1667 45.5,82.8333 45.5,85.5C 45.1667,85.5 44.8333,85.5 44.5,85.5C 44.5,82.5 44.5,79.5 44.5,76.5C 54.5,75.1667 64.5,75.1667 74.5,76.5 Z"/></g>
<g><path style="opacity:0.139" fill="#1c363d" d="M 85.5,75.5 C 87.1765,76.1834 87.8432,77.5168 87.5,79.5C 87.4524,80.5071 88.4524,80.8404 90.5,80.5C 90.8333,80.5 91.1667,80.5 91.5,80.5C 91.5,81.1667 91.5,81.8333 91.5,82.5C 90.1667,82.5 88.8333,82.5 87.5,82.5C 86.8333,82.1667 86.1667,81.8333 85.5,81.5C 85.5,79.5 85.5,77.5 85.5,75.5 Z"/></g>
<g><path style="opacity:0.02" fill="#151a1b" d="M 26.5,77.5 C 28.0481,77.8212 28.7148,78.8212 28.5,80.5C 28.1667,80.5 27.8333,80.5 27.5,80.5C 27.4431,79.391 27.1098,78.391 26.5,77.5 Z"/></g>
<g><path style="opacity:0.882" fill="#158aa8" d="M 80.5,72.5 C 81.6049,73.6005 82.9382,74.2671 84.5,74.5C 84.5,75.1667 84.8333,75.5 85.5,75.5C 85.5,77.5 85.5,79.5 85.5,81.5C 85.1667,81.5 84.8333,81.5 84.5,81.5C 84.5,79.8333 84.5,78.1667 84.5,76.5C 83.1667,76.5 81.8333,76.5 80.5,76.5C 80.5,75.1667 80.5,73.8333 80.5,72.5 Z"/></g>
<g><path style="opacity:0.004" fill="#000100" d="M 7.5,78.5 C 8.83333,79.1667 8.83333,79.1667 7.5,78.5 Z"/></g>
<g><path style="opacity:0.082" fill="#131819" d="M 92.5,77.5 C 91.8902,78.391 91.5569,79.391 91.5,80.5C 91.1667,80.5 90.8333,80.5 90.5,80.5C 90.2852,78.8212 90.9519,77.8212 92.5,77.5 Z"/></g>
<g><path style="opacity:0.004" fill="#000100" d="M 110.5,78.5 C 111.833,79.1667 111.833,79.1667 110.5,78.5 Z"/></g>
<g><path style="opacity:0.035" fill="#1a2c31" d="M 33.5,75.5 C 33.5,77.5 33.5,79.5 33.5,81.5C 32.8333,81.5 32.1667,81.5 31.5,81.5C 30.209,81.7373 29.209,81.404 28.5,80.5C 30.099,80.7678 31.4324,80.4345 32.5,79.5C 32.2322,77.901 32.5655,76.5676 33.5,75.5 Z"/></g>
<g><path style="opacity:0.18" fill="#435658" d="M 27.5,80.5 C 27.8333,80.5 28.1667,80.5 28.5,80.5C 29.209,81.404 30.209,81.7373 31.5,81.5C 31.5,81.8333 31.5,82.1667 31.5,82.5C 29.5168,82.8432 28.1834,82.1765 27.5,80.5 Z"/></g>
<g><path style="opacity:1" fill="#abdce1" d="M 26.5,88.5 C 23.3752,87.3205 21.3752,84.9872 20.5,81.5C 20.5,80.5 20.5,79.5 20.5,78.5C 21.8221,78.67 22.9887,78.3366 24,77.5C 26.1278,80.824 26.9611,84.4906 26.5,88.5 Z"/></g>
<g><path style="opacity:1" fill="#a9d8dd" d="M 94.5,76.5 C 96.4341,77.1103 98.1007,78.1103 99.5,79.5C 98.4986,82.1716 97.4986,84.8382 96.5,87.5C 94.6017,88.7345 92.935,88.4011 91.5,86.5C 91.5,86.1667 91.5,85.8333 91.5,85.5C 91.5,84.5 91.5,83.5 91.5,82.5C 91.5,81.8333 91.5,81.1667 91.5,80.5C 93.2624,79.7377 94.2624,78.4044 94.5,76.5 Z"/></g>
<g><path style="opacity:0.29" fill="#39494a" d="M 19.5,81.5 C 19.8333,81.5 20.1667,81.5 20.5,81.5C 21.3752,84.9872 23.3752,87.3205 26.5,88.5C 26.8333,88.5 27.1667,88.5 27.5,88.5C 27.1788,90.0481 26.1788,90.7148 24.5,90.5C 22.4817,88.4717 20.815,86.1383 19.5,83.5C 19.5,82.8333 19.5,82.1667 19.5,81.5 Z"/></g>
<g><path style="opacity:0.988" fill="#8bb6ba" d="M 24.5,75.5 C 25.1667,76.1667 25.8333,76.8333 26.5,77.5C 27.1098,78.391 27.4431,79.391 27.5,80.5C 28.1834,82.1765 29.5168,82.8432 31.5,82.5C 31.4226,83.7498 30.756,84.5831 29.5,85C 30.3366,86.0113 30.67,87.1779 30.5,88.5C 31.8333,88.5 33.1667,88.5 34.5,88.5C 33.8333,89.1667 33.1667,89.8333 32.5,90.5C 31.5,90.5 30.5,90.5 29.5,90.5C 29.762,89.0222 29.4287,87.6888 28.5,86.5C 27.7025,86.9569 27.3691,87.6236 27.5,88.5C 27.1667,88.5 26.8333,88.5 26.5,88.5C 26.9611,84.4906 26.1278,80.824 24,77.5C 22.9887,78.3366 21.8221,78.67 20.5,78.5C 20.5,79.5 20.5,80.5 20.5,81.5C 20.1667,81.5 19.8333,81.5 19.5,81.5C 19.5,80.8333 19.5,80.1667 19.5,79.5C 20.8273,77.8184 22.4939,76.4851 24.5,75.5 Z"/></g>
<g><path style="opacity:0.004" fill="#000100" d="M 17.5,84.5 C 18.8333,85.1667 18.8333,85.1667 17.5,84.5 Z"/></g>
<g><path style="opacity:1" fill="#aee0e5" d="M 31.5,81.5 C 32.1667,81.5 32.8333,81.5 33.5,81.5C 35.2572,82.292 36.5905,83.6253 37.5,85.5C 36.0065,86.1411 35.0065,87.1411 34.5,88.5C 33.1667,88.5 31.8333,88.5 30.5,88.5C 30.67,87.1779 30.3366,86.0113 29.5,85C 30.756,84.5831 31.4226,83.7498 31.5,82.5C 31.5,82.1667 31.5,81.8333 31.5,81.5 Z"/></g>
<g><path style="opacity:1" fill="#acdfe4" d="M 84.5,81.5 C 84.8333,81.5 85.1667,81.5 85.5,81.5C 86.1667,81.8333 86.8333,82.1667 87.5,82.5C 88.3686,84.717 88.702,87.0504 88.5,89.5C 87.1667,89.5 85.8333,89.5 84.5,89.5C 84.1788,87.9519 83.1788,87.2852 81.5,87.5C 81.0246,84.6874 82.0246,82.6874 84.5,81.5 Z"/></g>
<g><path style="opacity:0.129" fill="#18282c" d="M 108.5,72.5 C 108.833,72.5 109.167,72.5 109.5,72.5C 109.833,72.5 110.167,72.5 110.5,72.5C 110.739,74.4672 110.406,76.3005 109.5,78C 106.748,79.7508 103.748,80.5842 100.5,80.5C 100.649,81.552 100.483,82.552 100,83.5C 99.2597,85.3187 98.0931,86.6521 96.5,87.5C 97.4986,84.8382 98.4986,82.1716 99.5,79.5C 102.132,78.6733 104.798,77.84 107.5,77C 109.548,75.7741 109.881,74.2741 108.5,72.5 Z"/></g>
<g><path style="opacity:0.004" fill="#000000" d="M 100.5,84.5 C 101.833,85.1667 101.833,85.1667 100.5,84.5 Z"/></g>
<g><path style="opacity:0.976" fill="#12a8cd" d="M 40.5,72.5 C 41.9563,79.861 42.9563,87.1943 43.5,94.5C 43.5,95.5 43.5,96.5 43.5,97.5C 42.5,97.5 41.5,97.5 40.5,97.5C 40.5,98.5 40.5,99.5 40.5,100.5C 51.6926,98.4729 63.0259,97.9729 74.5,99C 73.5842,99.2784 72.9175,99.7784 72.5,100.5C 71.8333,100.5 71.5,100.833 71.5,101.5C 63.0968,100.866 55.0968,101.533 47.5,103.5C 47.5,104.5 47.5,105.5 47.5,106.5C 45.8561,106.714 44.3561,106.38 43,105.5C 43.1575,108.179 43.6575,110.846 44.5,113.5C 42.1631,110.981 41.3297,107.981 42,104.5C 47.7335,102.487 47.2335,101.487 40.5,101.5C 39.8485,100.909 39.1818,100.243 38.5,99.5C 37.8333,95.5 37.1667,91.5 36.5,87.5C 35.8933,87.6236 35.56,87.9569 35.5,88.5C 35.1667,88.5 34.8333,88.5 34.5,88.5C 35.0065,87.1411 36.0065,86.1411 37.5,85.5C 36.5905,83.6253 35.2572,82.292 33.5,81.5C 33.5,79.5 33.5,77.5 33.5,75.5C 36.4534,75.8504 38.7867,74.8504 40.5,72.5 Z"/></g>
<g><path style="opacity:1" fill="#80a1a5" d="M 87.5,82.5 C 88.8333,82.5 90.1667,82.5 91.5,82.5C 91.5,83.5 91.5,84.5 91.5,85.5C 90.1667,87.1667 88.8333,88.8333 87.5,90.5C 87.1667,90.5 86.8333,90.5 86.5,90.5C 85.5084,90.6716 84.8417,90.3382 84.5,89.5C 85.8333,89.5 87.1667,89.5 88.5,89.5C 88.702,87.0504 88.3686,84.717 87.5,82.5 Z"/></g>
<g><path style="opacity:1" fill="#526164" d="M 91.5,85.5 C 91.5,85.8333 91.5,86.1667 91.5,86.5C 90.5489,87.9187 90.2155,89.5853 90.5,91.5C 89.209,91.7373 88.209,91.404 87.5,90.5C 88.8333,88.8333 90.1667,87.1667 91.5,85.5 Z"/></g>
<g><path style="opacity:0.004" fill="#000100" d="M 19.5,88.5 C 20.8333,89.1667 20.8333,89.1667 19.5,88.5 Z"/></g>
<g><path style="opacity:0.004" fill="#000100" d="M 98.5,88.5 C 99.8333,89.1667 99.8333,89.1667 98.5,88.5 Z"/></g>
<g><path style="opacity:1" fill="#262829" d="M 32.5,90.5 C 31.6661,91.7479 30.3328,92.4146 28.5,92.5C 26.6672,92.4146 25.3339,91.7479 24.5,90.5C 26.1788,90.7148 27.1788,90.0481 27.5,88.5C 27.3691,87.6236 27.7025,86.9569 28.5,86.5C 29.4287,87.6888 29.762,89.0222 29.5,90.5C 30.5,90.5 31.5,90.5 32.5,90.5 Z"/></g>
<g><path style="opacity:0.004" fill="#191c1c" d="M 34.5,88.5 C 34.8333,88.5 35.1667,88.5 35.5,88.5C 35.1788,90.0481 34.1788,90.7148 32.5,90.5C 33.1667,89.8333 33.8333,89.1667 34.5,88.5 Z"/></g>
<g><path style="opacity:0.571" fill="#01596e" d="M 81.5,87.5 C 81.7744,92.263 81.441,96.9296 80.5,101.5C 80.1583,102.338 79.4916,102.672 78.5,102.5C 77.7552,105.39 77.0885,108.39 76.5,111.5C 76.1667,111.5 75.8333,111.5 75.5,111.5C 76.2186,109.236 76.552,106.903 76.5,104.5C 75.6016,103.842 74.6016,103.176 73.5,102.5C 75.6309,101.831 77.6309,101.165 79.5,100.5C 79.5,100.167 79.5,99.8333 79.5,99.5C 80.1667,95.5 80.8333,91.5 81.5,87.5 Z"/></g>
<g><path style="opacity:1" fill="#242727" d="M 91.5,86.5 C 92.935,88.4011 94.6017,88.7345 96.5,87.5C 96.0694,90.9237 94.0694,92.5903 90.5,92.5C 88.6672,92.4146 87.3339,91.7479 86.5,90.5C 86.8333,90.5 87.1667,90.5 87.5,90.5C 88.209,91.404 89.209,91.7373 90.5,91.5C 90.2155,89.5853 90.5489,87.9187 91.5,86.5 Z"/></g>
<g><path style="opacity:0.169" fill="#051f25" d="M 35.5,88.5 C 35.56,87.9569 35.8933,87.6236 36.5,87.5C 37.1667,91.5 37.8333,95.5 38.5,99.5C 39.1818,100.243 39.8485,100.909 40.5,101.5C 40.5,101.833 40.5,102.167 40.5,102.5C 39.4168,102.461 38.4168,102.127 37.5,101.5C 36.8331,97.0178 36.1664,92.6845 35.5,88.5 Z"/></g>
<g><path style="opacity:0.167" fill="#0c1f24" d="M 81.5,87.5 C 83.1788,87.2852 84.1788,87.9519 84.5,89.5C 83.8826,89.3893 83.3826,89.056 83,88.5C 83.1084,93.2803 82.275,97.6136 80.5,101.5C 81.441,96.9296 81.7744,92.263 81.5,87.5 Z"/></g>
<g><path style="opacity:1" fill="#62c1d2" d="M 44.5,76.5 C 44.5,79.5 44.5,82.5 44.5,85.5C 44.5,86.1667 44.5,86.8333 44.5,87.5C 44.5,89.8333 44.5,92.1667 44.5,94.5C 44.4142,95.4959 44.7476,96.3292 45.5,97C 54.6762,97.824 63.6762,97.6573 72.5,96.5C 74.3878,94.0122 75.0545,91.0122 74.5,87.5C 74.5,86.8333 74.5,86.1667 74.5,85.5C 74.5,82.5 74.5,79.5 74.5,76.5C 75.1174,76.6107 75.6174,76.944 76,77.5C 76.4995,83.8246 76.6662,90.1579 76.5,96.5C 77.5,96.5 78.5,96.5 79.5,96.5C 79.5,97.5 79.5,98.5 79.5,99.5C 79.5,99.8333 79.5,100.167 79.5,100.5C 77.1667,100.5 74.8333,100.5 72.5,100.5C 72.9175,99.7784 73.5842,99.2784 74.5,99C 63.0259,97.9729 51.6926,98.4729 40.5,100.5C 40.5,99.5 40.5,98.5 40.5,97.5C 41.5,97.5 42.5,97.5 43.5,97.5C 43.5,96.5 43.5,95.5 43.5,94.5C 43.1771,88.31 43.5104,82.31 44.5,76.5 Z"/></g>
<g><path style="opacity:1" fill="#98cdc8" d="M 44.5,94.5 C 45.1667,94.8333 45.8333,95.1667 46.5,95.5C 54.9839,96.493 63.6506,96.8264 72.5,96.5C 63.6762,97.6573 54.6762,97.824 45.5,97C 44.7476,96.3292 44.4142,95.4959 44.5,94.5 Z"/></g>
<g><path style="opacity:1" fill="#e7d0a2" d="M 73.5,87.5 C 73.8333,87.5 74.1667,87.5 74.5,87.5C 75.0545,91.0122 74.3878,94.0122 72.5,96.5C 63.6506,96.8264 54.9839,96.493 46.5,95.5C 55.5,95.5 64.5,95.5 73.5,95.5C 73.5,93.1667 73.5,90.8333 73.5,88.5C 73.5,88.1667 73.5,87.8333 73.5,87.5 Z"/></g>
<g><path style="opacity:1" fill="#f7c176" d="M 44.5,87.5 C 44.8333,87.5 45.1667,87.5 45.5,87.5C 46.3686,89.717 46.702,92.0504 46.5,94.5C 55.1667,94.5 63.8333,94.5 72.5,94.5C 72.2053,92.2646 72.5386,90.2646 73.5,88.5C 73.5,90.8333 73.5,93.1667 73.5,95.5C 64.5,95.5 55.5,95.5 46.5,95.5C 45.8333,95.1667 45.1667,94.8333 44.5,94.5C 44.5,92.1667 44.5,89.8333 44.5,87.5 Z"/></g>
<g><path style="opacity:1" fill="#fcb760" d="M 73.5,87.5 C 73.5,87.8333 73.5,88.1667 73.5,88.5C 72.5386,90.2646 72.2053,92.2646 72.5,94.5C 63.8333,94.5 55.1667,94.5 46.5,94.5C 46.702,92.0504 46.3686,89.717 45.5,87.5C 47.9229,87.5764 49.7562,86.5764 51,84.5C 52.3989,87.2076 54.3989,87.8743 57,86.5C 59.2256,86.9784 61.3923,87.645 63.5,88.5C 64.1667,89.8333 65.1667,90.8333 66.5,91.5C 67.8333,89.8333 69.1667,88.1667 70.5,86.5C 71.4168,87.1272 72.4168,87.4606 73.5,87.5 Z"/></g>
<g><path style="opacity:1" fill="#f47348" d="M 72.5,84.5 C 72.8417,85.3382 73.5084,85.6716 74.5,85.5C 74.5,86.1667 74.5,86.8333 74.5,87.5C 74.1667,87.5 73.8333,87.5 73.5,87.5C 72.4168,87.4606 71.4168,87.1272 70.5,86.5C 69.1667,88.1667 67.8333,89.8333 66.5,91.5C 65.1667,90.8333 64.1667,89.8333 63.5,88.5C 61.3923,87.645 59.2256,86.9784 57,86.5C 54.3989,87.8743 52.3989,87.2076 51,84.5C 49.7562,86.5764 47.9229,87.5764 45.5,87.5C 45.1667,87.5 44.8333,87.5 44.5,87.5C 44.5,86.8333 44.5,86.1667 44.5,85.5C 44.8333,85.5 45.1667,85.5 45.5,85.5C 47.1454,84.5213 48.4787,83.188 49.5,81.5C 50.6888,80.5713 52.0222,80.238 53.5,80.5C 53.6329,83.8957 54.6329,84.2291 56.5,81.5C 57.8333,82.1667 58.8333,83.1667 59.5,84.5C 62.0297,85.1319 64.363,86.1319 66.5,87.5C 67.2191,85.4833 68.3857,83.8166 70,82.5C 71.0111,83.0556 71.8444,83.7222 72.5,84.5 Z"/></g>
<g><path style="opacity:1" fill="#fcb661" d="M 72.5,84.5 C 71.8444,83.7222 71.0111,83.0556 70,82.5C 68.3857,83.8166 67.2191,85.4833 66.5,87.5C 64.363,86.1319 62.0297,85.1319 59.5,84.5C 58.8333,83.1667 57.8333,82.1667 56.5,81.5C 54.6329,84.2291 53.6329,83.8957 53.5,80.5C 52.0222,80.238 50.6888,80.5713 49.5,81.5C 48.4787,83.188 47.1454,84.5213 45.5,85.5C 45.5,82.8333 45.5,80.1667 45.5,77.5C 54.5,77.5 63.5,77.5 72.5,77.5C 72.5,79.8333 72.5,82.1667 72.5,84.5 Z"/></g>
<g><path style="opacity:0.831" fill="#158ca9" d="M 72.5,100.5 C 74.8333,100.5 77.1667,100.5 79.5,100.5C 77.6309,101.165 75.6309,101.831 73.5,102.5C 74.6016,103.176 75.6016,103.842 76.5,104.5C 74.7085,104.634 73.0418,104.301 71.5,103.5C 71.5,102.833 71.5,102.167 71.5,101.5C 71.5,100.833 71.8333,100.5 72.5,100.5 Z"/></g>
<g><path style="opacity:1" fill="#63cadd" d="M 71.5,101.5 C 71.5,102.167 71.5,102.833 71.5,103.5C 63.5985,104.813 55.5985,104.813 47.5,103.5C 55.0968,101.533 63.0968,100.866 71.5,101.5 Z"/></g>
<g><path style="opacity:0.004" fill="#000100" d="M 35.5,102.5 C 36.8333,103.167 36.8333,103.167 35.5,102.5 Z"/></g>
<g><path style="opacity:0.004" fill="#000100" d="M 82.5,102.5 C 83.8333,103.167 83.8333,103.167 82.5,102.5 Z"/></g>
<g><path style="opacity:1" fill="#03b0d7" d="M 47.5,103.5 C 55.5985,104.813 63.5985,104.813 71.5,103.5C 73.0418,104.301 74.7085,104.634 76.5,104.5C 76.552,106.903 76.2186,109.236 75.5,111.5C 74.8333,112.5 74.1667,113.5 73.5,114.5C 64.5404,115.415 55.5404,115.748 46.5,115.5C 45.5,115.167 44.8333,114.5 44.5,113.5C 43.6575,110.846 43.1575,108.179 43,105.5C 44.3561,106.38 45.8561,106.714 47.5,106.5C 47.5,105.5 47.5,104.5 47.5,103.5 Z"/></g>
<g><path style="opacity:0.02" fill="#03171b" d="M 78.5,102.5 C 79.0545,106.012 78.3878,109.012 76.5,111.5C 77.0885,108.39 77.7552,105.39 78.5,102.5 Z"/></g>
<g><path style="opacity:0.004" fill="#000000" d="M 78.5,112.5 C 79.8333,113.167 79.8333,113.167 78.5,112.5 Z"/></g>
<g><path style="opacity:0.09" fill="#0c3740" d="M 40.5,101.5 C 47.2335,101.487 47.7335,102.487 42,104.5C 41.3297,107.981 42.1631,110.981 44.5,113.5C 44.8333,114.5 45.5,115.167 46.5,115.5C 54.6499,116.493 62.9832,116.826 71.5,116.5C 71.5,116.833 71.5,117.167 71.5,117.5C 71.5,117.833 71.5,118.167 71.5,118.5C 63.1667,118.5 54.8333,118.5 46.5,118.5C 46.1667,117.5 45.5,116.833 44.5,116.5C 41.1641,112.536 39.8308,107.869 40.5,102.5C 40.5,102.167 40.5,101.833 40.5,101.5 Z"/></g>
<g><path style="opacity:0.773" fill="#0091b3" d="M 73.5,114.5 C 73.1667,115.5 72.5,116.167 71.5,116.5C 62.9832,116.826 54.6499,116.493 46.5,115.5C 55.5404,115.748 64.5404,115.415 73.5,114.5 Z"/></g>
<g><path style="opacity:0.094" fill="#062a33" d="M 75.5,111.5 C 75.8333,111.5 76.1667,111.5 76.5,111.5C 76.1692,113.322 75.5025,114.989 74.5,116.5C 73.609,117.11 72.609,117.443 71.5,117.5C 71.5,117.167 71.5,116.833 71.5,116.5C 72.5,116.167 73.1667,115.5 73.5,114.5C 74.1667,113.5 74.8333,112.5 75.5,111.5 Z"/></g>
<g><path style="opacity:0.027" fill="#130d07" d="M 44.5,116.5 C 45.5,116.833 46.1667,117.5 46.5,118.5C 46.5,118.833 46.5,119.167 46.5,119.5C 44.5,119.5 42.5,119.5 40.5,119.5C 40.281,118.325 40.6143,117.325 41.5,116.5C 42.6868,117.653 43.6868,117.653 44.5,116.5 Z"/></g>
<g><path style="opacity:0.024" fill="#120d07" d="M 74.5,116.5 C 75.3132,117.653 76.3132,117.653 77.5,116.5C 78.3857,117.325 78.719,118.325 78.5,119.5C 76.1667,119.5 73.8333,119.5 71.5,119.5C 71.5,119.167 71.5,118.833 71.5,118.5C 71.5,118.167 71.5,117.833 71.5,117.5C 72.609,117.443 73.609,117.11 74.5,116.5 Z"/></g>
</svg>
